<svg xmlns="http://www.w3.org/2000/svg" width="162" height="13" viewBox="0 0 162 13"><defs><linearGradient id="w2hna" x1="23.69" x2="24.66" y1="13.03" y2="0" gradientUnits="userSpaceOnUse"><stop offset="0" stop-color="#ffc916"/><stop offset="1" stop-color="#ffd54f"/></linearGradient><linearGradient id="w2hnb" x1="116.75" x2="116.69" y1="13.03" y2="0" gradientUnits="userSpaceOnUse"><stop offset="0" stop-color="#fe1f3f"/><stop offset=".15" stop-color="#fe1f3f"/><stop offset="1" stop-color="#ef6844"/></linearGradient></defs><g><g><path fill="url(#w2hna)" d="M7.156 0h34.031a6.5 6.5 0 0 1 6.5 6.5v.031a6.5 6.5 0 0 1-6.5 6.5H7.157a6.5 6.5 0 0 1-6.5-6.5V6.5a6.5 6.5 0 0 1 6.5-6.5z"/></g><g><path fill="url(#w2hnb)" d="M78.187 0h77.063a6.5 6.5 0 0 1 6.5 6.5v.031a6.5 6.5 0 0 1-6.5 6.5H78.187a6.5 6.5 0 0 1-6.5-6.5V6.5a6.5 6.5 0 0 1 6.5-6.5z"/></g></g></svg>