<svg xmlns="http://www.w3.org/2000/svg" width="9.75" height="10" viewBox="0 0 39 40"><defs><mask id="luvrb" width="2.38" height="2.38" x="-1.19" y="-1.19"><path fill="#fff" d="M8.7-2.3h16.6v16.6H8.7z"/><path d="M17 0a6 6 0 1 1 0 12 6 6 0 0 1 0-12z"/></mask><filter id="luvra" width="70.1" height="82.9" x="-17" y="-28" filterUnits="userSpaceOnUse"><feOffset dx="2.1" dy="14.9" in="SourceGraphic" result="FeOffset1058Out"/><feGaussianBlur in="FeOffset1058Out" result="FeGaussianBlur1059Out" stdDeviation="6.279999999999999 6.279999999999999"/></filter><linearGradient id="luvrc" x1="17" x2="17" y1="12" y2="0" gradientUnits="userSpaceOnUse"><stop offset="0" stop-color="#ffcb1f"/><stop offset="1" stop-color="#ffd44d"/></linearGradient></defs><g><g><g filter="url(#luvra)"><path fill="none" stroke="#a02b23" stroke-opacity=".09" stroke-width="4.6" d="M17 0a6 6 0 1 1 0 12 6 6 0 0 1 0-12z" mask="url(&quot;#luvrb&quot;)"/><path fill="#a02b23" fill-opacity=".09" d="M17 0a6 6 0 1 1 0 12 6 6 0 0 1 0-12z"/></g><path fill="url(#luvrc)" d="M17 0a6 6 0 1 1 0 12 6 6 0 0 1 0-12z"/></g></g></svg>