<svg height="511pt" viewBox="0 0 511.99941 511" width="511pt" xmlns="http://www.w3.org/2000/svg"><path d="m78.582031 220.546875 51.765625 22.710937c12.429688-16.667968 26.699219-35.5625 41.53125-54.734374l-49.765625-21.832032c-3.785156-1.664062-8.207031-.832031-11.132812 2.09375l-35.464844 35.464844c-5 4.996094-3.40625 13.457031 3.066406 16.296875zm0 0"/><path d="m269.242188 382.148438 22.710937 51.769531c2.839844 6.472656 11.296875 8.0625 16.296875 3.066406l35.460938-35.464844c2.925781-2.925781 3.757812-7.347656 2.097656-11.136719l-21.832032-49.765624c-19.175781 14.832031-38.070312 29.101562-54.734374 41.53125zm0 0"/><path d="m284.105469 101.628906c-47.273438 47.273438-137.386719 169.878906-163.910157 206.367188l31.480469 31.476562 66.964844-66.96875c5.746094-5.746094 15.109375-6.273437 21.121094-.804687 6.417969 5.839843 6.59375 15.78125.527343 21.847656l-67.269531 67.269531 31.484375 31.484375c36.476563-26.515625 159.085938-116.628906 206.363282-163.910156 48.265624-48.261719 74.300781-112.871094 87.644531-158.570313 6.464843-22.140624 10.664062-42.125 13.335937-57.582031 1.183594-6.824219-4.765625-12.769531-11.589844-11.589843-15.453124 2.675781-35.4375 6.875-57.582031 13.339843-45.695312 13.339844-110.304687 39.375-158.570312 87.640625zm124.914062 80.625c-10.859375 10.859375-25.125 16.289063-39.386719 16.289063-14.265624 0-28.53125-5.429688-39.390624-16.289063-21.71875-21.71875-21.71875-57.054687 0-78.773437s57.058593-21.71875 78.777343 0 21.71875 57.054687 0 78.773437zm0 0"/><path d="m77.632812 402.941406c-18.292968 11.386719-47.851562 30.691406-58.945312 41.785156-13.851562 13.851563-18.042969 38.230469-18.68359375 57.355469-.19140625 5.839844 4.57421875 10.605469 10.41406275 10.410157 19.113281-.648438 43.5-4.828126 57.355469-18.679688 11.101562-11.105469 30.402343-40.65625 41.785156-58.945312zm0 0"/><path d="m80.117188 362.730469 24.148437 24.148437 26.0625-26.0625-29.902344-29.902344-20.308593 20.308594c-3.171876 3.171875-3.171876 8.335938 0 11.507813zm0 0"/><path d="m181.585938 412.070312-29.910157-29.90625-26.066406 26.0625 24.15625 24.15625c3.171875 3.171876 8.335937 3.171876 11.507813 0zm0 0"/><path d="m369.632812 117.363281c-6.535156 0-13.066406 2.484375-18.042968 7.460938-9.949219 9.949219-9.949219 26.136719 0 36.085937 9.949218 9.945313 26.136718 9.945313 36.085937 0 9.945313-9.949218 9.945313-26.136718-.003906-36.085937-4.972656-4.972657-11.507813-7.460938-18.039063-7.460938zm0 0"/></svg>