<svg id="Capa_1" enable-background="new 0 0 511.966 511.966" height="512" viewBox="0 0 511.966 511.966" width="512" xmlns="http://www.w3.org/2000/svg" xmlns:xlink="http://www.w3.org/1999/xlink"><linearGradient id="SVGID_1_" gradientUnits="userSpaceOnUse" x1="174.099" x2="507.511" y1="337.867" y2="4.455"><stop offset="0" stop-color="#addcff"/><stop offset=".5028" stop-color="#eaf6ff"/><stop offset="1" stop-color="#eaf6ff"/></linearGradient><linearGradient id="SVGID_2_" gradientUnits="userSpaceOnUse" x1="4.394" x2="396.838" y1="507.572" y2="115.128"><stop offset="0" stop-color="#5558ff"/><stop offset="1" stop-color="#00c0ff"/></linearGradient><g><g><g><path d="m280.165 359.08c17.547 17.546 17.547 46.093 0 63.64-5.863 5.863-5.863 15.351 0 21.213s15.351 5.862 21.213 0l58.543-58.543c33.488-33.488 44.944-81.984 29.904-126.565-1.585-4.878-5.749-8.628-10.783-9.809-5.044-1.171-10.358.331-14.025 3.998l-84.853 84.853c-5.861 5.862-5.861 15.35.001 21.213zm-17.215-226.157c-1.181-5.075-4.92-9.208-9.809-10.783-44.581-15.04-93.077-3.584-126.565 29.904l-58.543 58.543c-5.863 5.862-5.863 15.351 0 21.213 5.863 5.863 15.351 5.863 21.213 0 17.546-17.546 46.093-17.546 63.64 0 5.863 5.863 15.351 5.863 21.213 0l84.853-84.853c3.667-3.666 5.169-8.979 3.998-14.024zm244.561-107.254c5.94-5.94 5.94-15.273 0-21.213s-15.273-5.94-21.213 0l-15.213 15.213c-3.181 1.061-15.698-2.121-23.758-4.243-31.185-8.273-78.278-21-124.735 25.457l37.779 68.001c-26.87-10.404-58.558-4.795-80.205 16.852l-21.213 21.213c-29.241 29.241-29.251 76.815 0 106.066s76.825 29.241 106.066 0l21.213-21.213c21.646-21.646 27.256-53.335 16.851-80.205l68.001 37.778c46.457-46.457 33.729-93.55 25.456-124.735-2.334-8.272-5.516-20.789-4.243-23.757zm-227.346 290.985-84.853-84.853c-5.863-5.862-15.351-5.862-21.213 0l-21.213 21.213c-17.547 17.546-17.547 46.093 0 63.64l42.426 42.426c17.546 17.546 46.093 17.546 63.64 0l21.213-21.213c5.863-5.863 5.863-15.351 0-21.213z" fill="url(#SVGID_1_)"/></g></g><g><g><path d="m322.592 40.882-169.706 169.706c-5.939 5.939-5.94 15.273 0 21.213l127.279 127.279c5.94 5.94 15.274 5.939 21.213 0l169.706-169.706zm21.213 190.919c-17.606 17.606-46.032 17.607-63.64 0-17.607-17.607-17.606-46.034 0-63.64l21.213-21.213c17.607-17.607 46.032-17.607 63.64 0 17.607 17.607 17.607 46.032 0 63.64zm-296.985 127.279c-25.449 25.45-43.255 117.087-46.569 135.193-.901 4.837.663 9.819 4.143 13.3 3.48 3.48 8.463 5.044 13.3 4.143 18.106-3.314 109.743-21.12 135.193-46.57 29.24-29.24 29.251-76.815 0-106.066s-76.826-29.241-106.067 0z" fill="url(#SVGID_2_)"/></g></g></g></svg>